<svg xmlns="http://www.w3.org/2000/svg" height="512pt" version="1.1" viewBox="-25 0 512 512.00078" width="512pt">
<g id="surface1">
<path d="M 172.667969 334.488281 L 72.433594 334.488281 C 67.359375 334.488281 63.207031 330.339844 63.207031 325.261719 C 63.207031 320.1875 67.359375 316.035156 72.433594 316.035156 L 178.78125 316.035156 C 184.660156 301.042969 192.503906 288.351562 202.195312 275.664062 L 72.433594 275.664062 C 67.359375 275.664062 63.207031 271.515625 63.207031 266.4375 C 63.207031 261.363281 67.359375 257.210938 72.433594 257.210938 L 219.726562 257.210938 C 247.40625 232.988281 284.085938 217.535156 324.109375 217.535156 C 327.914062 217.535156 331.03125 217.878906 335.644531 218.226562 L 335.644531 123.414062 L 266.4375 123.414062 C 239.679688 123.414062 217.996094 101.5 217.996094 74.855469 L 217.996094 0 L 41.0625 0 C 18.222656 0 0 18.683594 0 41.636719 L 0 393.660156 C 0 416.613281 18.222656 434.835938 41.0625 434.835938 L 180.046875 434.835938 C 172.089844 416.382812 167.707031 395.621094 167.707031 373.9375 C 167.589844 360.328125 169.4375 347.175781 172.667969 334.488281 Z M 72.433594 199.539062 L 189.277344 199.539062 C 194.351562 199.539062 198.503906 203.691406 198.503906 208.769531 C 198.503906 213.84375 194.351562 217.996094 189.277344 217.996094 L 72.433594 217.996094 C 67.359375 217.996094 63.207031 213.84375 63.207031 208.769531 C 63.207031 203.691406 67.359375 199.539062 72.433594 199.539062 Z M 72.433594 199.539062 " style=" stroke:none;fill-rule:nonzero;fill:rgb(0%,0%,0%);fill-opacity:1;" />
<path d="M 323.765625 277.742188 C 270.359375 277.742188 226.992188 321.109375 226.992188 374.511719 C 226.992188 427.917969 270.359375 471.285156 323.765625 471.285156 C 377.167969 471.285156 420.535156 427.917969 420.535156 374.511719 C 420.535156 321.109375 377.167969 277.742188 323.765625 277.742188 Z M 363.671875 401.386719 C 367.246094 404.964844 367.246094 410.847656 363.671875 414.421875 C 361.824219 416.265625 359.519531 417.074219 357.097656 417.074219 C 354.675781 417.074219 352.367188 416.152344 350.523438 414.421875 L 323.765625 387.546875 L 297.003906 414.304688 C 295.160156 416.152344 292.851562 416.957031 290.429688 416.957031 C 288.007812 416.957031 285.703125 416.035156 283.855469 414.304688 C 280.28125 410.730469 280.28125 404.847656 283.855469 401.273438 L 310.613281 374.511719 L 283.855469 347.753906 C 280.28125 344.179688 280.28125 338.296875 283.855469 334.71875 C 287.429688 331.144531 293.3125 331.144531 296.890625 334.71875 L 323.648438 361.480469 L 350.40625 334.71875 C 353.984375 331.144531 359.867188 331.144531 363.441406 334.71875 C 367.015625 338.296875 367.015625 344.179688 363.441406 347.753906 L 336.796875 374.511719 Z M 363.671875 401.386719 " style=" stroke:none;fill-rule:nonzero;fill:rgb(0%,0%,0%);fill-opacity:1;" />
<path d="M 323.992188 236.335938 C 247.984375 236.335938 186.160156 298.15625 186.160156 374.167969 C 186.160156 450.175781 247.984375 512 323.992188 512 C 400.003906 512 461.828125 450.175781 461.828125 374.167969 C 461.828125 298.15625 400.003906 236.335938 323.992188 236.335938 Z M 323.765625 489.738281 C 260.210938 489.738281 208.539062 438.066406 208.539062 374.511719 C 208.539062 310.960938 260.210938 259.289062 323.765625 259.289062 C 387.316406 259.289062 438.988281 310.960938 438.988281 374.511719 C 438.988281 438.066406 387.316406 489.738281 323.765625 489.738281 Z M 323.765625 489.738281 " style=" stroke:none;fill-rule:nonzero;fill:rgb(0%,0%,0%);fill-opacity:1;" />
<path d="M 266.4375 104.960938 L 322.957031 104.960938 L 236.449219 13.957031 L 236.449219 74.855469 C 236.449219 91.351562 249.828125 104.960938 266.4375 104.960938 Z M 266.4375 104.960938 " style=" stroke:none;fill-rule:nonzero;fill:rgb(0%,0%,0%);fill-opacity:1;" />
</g>
</svg>