<svg height="640pt" viewBox="0 -52 640 640" width="640pt" xmlns="http://www.w3.org/2000/svg"><path d="m253.089844 20.621094 68.394531 86.640625h-174.46875c-31.152344 0-56.371094 25.21875-56.371094 56.371093v371.777344h-34.273437c-31.152344 0-56.371094-25.21875-56.371094-56.378906v-422.660156c0-31.152344 25.21875-56.371094 56.371094-56.371094h153.105468c16.765626 0 32.785157 7.5625 43.613282 20.621094zm0 0" fill="#00efd1"/><path d="m640 160.816406v318.367188c0 31.152344-25.21875 56.371094-56.371094 56.371094h-507.816406v-374.738282c0-31.152344 25.21875-56.371094 56.371094-56.371094h451.445312c31.152344 0 56.371094 25.21875 56.371094 56.371094zm0 0" fill="#00acea"/><g fill="#083863"><path d="m406.34375 267.777344c-5.789062-5.785156-15.132812-5.785156-20.917969 0l-32.34375 32.34375-32.488281-32.34375c-5.785156-5.785156-15.132812-5.785156-20.914062 0-5.789063 5.785156-5.789063 15.132812 0 20.917968l32.335937 32.34375-32.335937 32.339844c-5.789063 5.785156-5.789063 15.132813 0 20.917969 2.960937 2.96875 6.671874 4.300781 10.53125 4.300781 3.855468 0 7.5625-1.484375 10.53125-4.300781l32.339843-32.339844 32.34375 32.339844c2.964844 2.96875 6.675781 4.300781 10.53125 4.300781s7.5625-1.484375 10.53125-4.300781c5.785157-5.785156 5.785157-15.132813 0-20.917969l-32.488281-32.191406 32.34375-32.339844c5.785156-5.785156 5.785156-15.285156 0-21.070312zm0 0"/><path d="m353.082031 170.015625c-83.375 0-151.171875 67.796875-151.171875 151.171875s67.796875 151.171875 151.171875 151.171875c83.378907 0 151.175781-67.796875 151.175781-151.171875s-67.796874-151.171875-151.175781-151.171875zm0 272.675781c-67.058593 0-121.5-54.449218-121.5-121.503906s54.441407-121.503906 121.5-121.503906c67.058594 0 121.503907 54.449218 121.503907 121.503906s-54.59375 121.503906-121.503907 121.503906zm0 0"/></g></svg>