<svg enable-background="new 0 0 24 24" height="512" viewBox="0 0 24 24" width="512" xmlns="http://www.w3.org/2000/svg"><path d="m22.25 14h-2.756c-.778 0-1.452.501-1.677 1.247l-.858 2.862c-.157.525-.649.891-1.197.891h-7.524c-.548 0-1.04-.366-1.197-.891l-.858-2.862c-.224-.746-.898-1.247-1.677-1.247h-2.756c-.965 0-1.75.785-1.75 1.75v5.5c0 1.517 1.233 2.75 2.75 2.75h18.5c1.517 0 2.75-1.233 2.75-2.75v-5.5c0-.965-.785-1.75-1.75-1.75z"/><path d="m7.75 5.25 4.25-4.5 4.25 4.5z"/><path d="m16.25 6h-8.5c-.3 0-.57-.178-.688-.453-.12-.275-.063-.594.143-.812l4.25-4.5c.283-.3.807-.3 1.09 0l4.25 4.5c.206.218.263.537.144.812s-.389.453-.689.453zm-6.76-1.5h5.02l-2.51-2.658z"/><path d="m12 14c-.553 0-1-.448-1-1v-10.25c0-.552.447-1 1-1s1 .448 1 1v10.25c0 .552-.447 1-1 1z"/></svg>