<?xml version="1.0" encoding="iso-8859-1"?>
<!-- Generator: Adobe Illustrator 18.0.0, SVG Export Plug-In . SVG Version: 6.00 Build 0)  -->
<!DOCTYPE svg PUBLIC "-//W3C//DTD SVG 1.1//EN" "http://www.w3.org/Graphics/SVG/1.1/DTD/svg11.dtd">
<svg version="1.1" id="Capa_1" xmlns="http://www.w3.org/2000/svg" xmlns:xlink="http://www.w3.org/1999/xlink" x="0px" y="0px"
	 viewBox="0 0 57 57" style="enable-background:new 0 0 57 57;" xml:space="preserve">
<g>
	<path d="M50.5,35.36V33h1c0.553,0,1-0.447,1-1s-0.447-1-1-1h-1h-1h-14h-1h-1c-0.553,0-1,0.447-1,1s0.447,1,1,1h1v2.36
		c0,3.535,1.845,6.748,4.827,8.64c-2.981,1.892-4.827,5.105-4.827,8.64V55h-1c-0.553,0-1,0.447-1,1s0.447,1,1,1h1h1h14h1h1
		c0.553,0,1-0.447,1-1s-0.447-1-1-1h-1v-2.36c0-3.535-1.845-6.748-4.827-8.64C48.655,42.108,50.5,38.895,50.5,35.36z M48.5,52.64V55
		h-12v-2.36c0-3.319,2.033-6.298,5.197-7.64h1.605C46.467,46.342,48.5,49.32,48.5,52.64z M43.303,43h-1.605
		c-3.164-1.342-5.197-4.32-5.197-7.64V33h12v2.36C48.5,38.68,46.467,41.658,43.303,43z"/>
	<path d="M43.324,0H13.676C6.962,0,1.5,5.462,1.5,12.176v29.648C1.5,48.538,6.962,54,13.676,54H31.5v-1.36
		c0-3.247,1.199-6.279,3.262-8.64c-0.281-0.322-0.547-0.654-0.795-1l-1.186-2c-0.826-1.729-1.28-3.644-1.28-5.64V28h15
		c0.552,0,0.89,0,1,0c0.719,0,6,0,6,0h1c0.552,0,1-0.447,1-1V12.176C55.5,5.462,50.038,0,43.324,0z M22.188,37.65l-6.857,7.999
		c-0.197,0.23-0.477,0.35-0.76,0.35c-0.209,0-0.42-0.065-0.6-0.2L9.4,42.37c-0.442-0.331-0.531-0.958-0.2-1.399
		c0.332-0.442,0.958-0.53,1.4-0.2l3.822,2.866l6.248-7.287c0.359-0.42,0.992-0.468,1.41-0.108
		C22.499,36.601,22.547,37.231,22.188,37.65z M22.188,22.65l-6.857,8c-0.197,0.23-0.477,0.35-0.76,0.35c-0.209,0-0.42-0.065-0.6-0.2
		L9.4,27.371c-0.442-0.331-0.531-0.958-0.2-1.399c0.332-0.442,0.958-0.531,1.4-0.2l3.822,2.866l6.248-7.288
		c0.359-0.42,0.992-0.468,1.41-0.108C22.499,21.601,22.547,22.231,22.188,22.65z M22.188,8.65l-6.857,8
		c-0.197,0.23-0.477,0.35-0.76,0.35c-0.209,0-0.42-0.065-0.6-0.2L9.4,13.371c-0.442-0.331-0.531-0.958-0.2-1.399
		c0.332-0.442,0.958-0.531,1.4-0.2l3.822,2.866l6.248-7.288c0.359-0.42,0.992-0.468,1.41-0.108
		C22.499,7.601,22.547,8.231,22.188,8.65z M46.5,14h-18c-0.552,0-1-0.447-1-1s0.448-1,1-1h18c0.552,0,1,0.447,1,1S47.052,14,46.5,14
		z"/>
</g>
<g>
</g>
<g>
</g>
<g>
</g>
<g>
</g>
<g>
</g>
<g>
</g>
<g>
</g>
<g>
</g>
<g>
</g>
<g>
</g>
<g>
</g>
<g>
</g>
<g>
</g>
<g>
</g>
<g>
</g>
</svg>
