<svg height="512pt" viewBox="0 -24 512 512" width="512pt" xmlns="http://www.w3.org/2000/svg"><path d="m421.984375 283.191406c-30.75 0-57.945313 15.503906-74.1875 39.101563-.320313-.238281-.65625-.46875-1.011719-.675781l-32.796875-18.933594c2.589844-6.824219 4.019531-14.214844 4.019531-21.933594 0-30.785156-22.554687-56.394531-52.007812-61.191406v-37.867188c0-.757812-.09375-1.492187-.25-2.203125 45.0625-4.875 80.265625-43.144531 80.265625-89.484375 0-30.726562-15.4375-59.027344-41.292969-75.699218-4.640625-2.992188-10.828125-1.65625-13.824218 2.984374-2.992188 4.644532-1.65625 10.832032 2.988281 13.824219 20.117187 12.972657 32.128906 34.988281 32.128906 58.890625 0 13.09375-3.621094 25.351563-9.902344 35.84375-3.84375-10.683594-13.109375-18.925781-24.796875-21.109375l-.414062-.074219c.730468-2.855468 1.121094-5.839843 1.121094-8.917968v-10.40625c0-19.863282-16.160157-36.023438-36.023438-36.023438-19.859375 0-36.019531 16.160156-36.019531 36.023438v10.40625c0 3.078125.386719 6.066406 1.117187 8.917968l-.414062.074219c-11.6875 2.183594-20.953125 10.425781-24.792969 21.109375-6.28125-10.492187-9.902344-22.75-9.902344-35.84375 0-23.996094 12.082031-46.058594 32.324219-59.015625 4.648438-2.976562 6.007812-9.160156 3.027344-13.8125-2.976563-4.652343-9.160156-6.007812-13.8125-3.03125-26.011719 16.652344-41.539063 45.011719-41.539063 75.859375 0 46.339844 35.199219 84.609375 80.265625 89.484375-.160156.710938-.25 1.445313-.25 2.203125v37.867188c-29.453125 4.796875-52.011718 30.40625-52.011718 61.191406 0 7.71875 1.429687 15.109375 4.019531 21.933594l-32.796875 18.933594c-.355469.207031-.6875.433593-1.007813.675781-16.242187-23.597657-43.441406-39.101563-74.191406-39.101563-49.636719 0-90.015625 40.378906-90.015625 90.011719s40.378906 90.015625 90.015625 90.015625c49.632813 0 90.011719-40.382812 90.011719-90.015625 0-11.839844-2.300782-23.152344-6.476563-33.519531.566407-.199219 1.125-.433594 1.664063-.746094l32.8125-18.945312c11.382812 13.886718 28.660156 22.765624 47.972656 22.765624s36.589844-8.878906 47.972656-22.765624l32.8125 18.945312c.539063.3125 1.097656.546875 1.664063.746094-4.175781 10.367187-6.476563 21.679687-6.476563 33.519531 0 49.632813 40.378906 90.015625 90.011719 90.015625 49.636719 0 90.015625-40.382812 90.015625-90.015625s-40.378906-90.011719-90.015625-90.011719zm-374.011719 145.957032v-9.039063c0-6.125 4.371094-11.386719 10.390625-12.507813l8.027344-1.496093c6.328125 5.511719 14.589844 8.863281 23.621094 8.863281 9.035156 0 17.296875-3.351562 23.625-8.863281l8.027343 1.496093c6.019532 1.121094 10.390626 6.382813 10.390626 12.507813v9.039063c-11.714844 8.828124-26.277344 14.070312-42.042969 14.070312s-30.324219-5.242188-42.039063-14.070312zm58.0625-50.203126c0 8.835938-7.1875 16.023438-16.019531 16.023438-8.835937 0-16.023437-7.1875-16.023437-16.023438v-10.40625c0-8.835937 7.1875-16.023437 16.023437-16.023437 8.832031 0 16.019531 7.1875 16.019531 16.023437zm44.09375 30.101563c-3.84375-10.683594-13.109375-18.929687-24.796875-21.105469l-.414062-.078125c.726562-2.851562 1.117187-5.839843 1.117187-8.917969v-10.40625c0-19.863281-16.15625-36.019531-36.019531-36.019531s-36.023437 16.15625-36.023437 36.019531v10.40625c0 3.078126.390624 6.066407 1.121093 8.917969l-.414062.078125c-11.6875 2.179688-20.953125 10.421875-24.796875 21.105469-6.28125-10.492187-9.902344-22.75-9.902344-35.84375 0-38.605469 31.40625-70.015625 70.015625-70.015625 38.605469 0 70.011719 31.410156 70.011719 70.015625 0 13.09375-3.621094 25.351563-9.898438 35.84375zm89.851563-323.707031c0-8.835938 7.183593-16.023438 16.019531-16.023438 8.832031 0 16.019531 7.1875 16.019531 16.023438v10.40625c0 8.835937-7.183593 16.023437-16.019531 16.023437s-16.019531-7.1875-16.019531-16.023437zm-15.628907 39.0625 8.027344-1.496094c6.328125 5.511719 14.589844 8.863281 23.621094 8.863281s17.292969-3.351562 23.621094-8.863281l8.027344 1.496094c6.023437 1.121094 10.390624 6.382812 10.390624 12.507812v9.039063c-11.714843 8.828125-26.273437 14.070312-42.039062 14.070312s-30.328125-5.242187-42.042969-14.070312v-9.039063c0-6.125 4.371094-11.386718 10.394531-12.507812zm31.648438 198.355468c-23.164062 0-42.007812-18.84375-42.007812-42.007812s18.84375-42.011719 42.007812-42.011719 42.007812 18.847657 42.007812 42.011719-18.84375 42.007812-42.007812 42.007812zm123.945312 106.390626v-9.039063c0-6.125 4.371094-11.386719 10.390626-12.507813l8.027343-1.496093c6.332031 5.511719 14.589844 8.863281 23.625 8.863281 9.03125 0 17.292969-3.351562 23.621094-8.863281l8.027344 1.496093c6.019531 1.121094 10.390625 6.382813 10.390625 12.507813v9.039063c-11.714844 8.828124-26.277344 14.070312-42.042969 14.070312-15.761719 0-30.324219-5.242188-42.039063-14.070312zm58.0625-50.203126c0 8.835938-7.1875 16.023438-16.023437 16.023438-8.832031 0-16.019531-7.1875-16.019531-16.023438v-10.40625c0-8.835937 7.1875-16.023437 16.019531-16.023437 8.835937 0 16.023437 7.1875 16.023437 16.023437zm44.089844 30.101563c-3.84375-10.683594-13.109375-18.925781-24.792968-21.105469l-.414063-.078125c.726563-2.851562 1.117187-5.839843 1.117187-8.917969v-10.40625c0-19.863281-16.160156-36.019531-36.019531-36.019531-19.863281 0-36.023437 16.15625-36.023437 36.019531v10.40625c0 3.078126.390625 6.066407 1.121094 8.917969l-.414063.078125c-11.6875 2.179688-20.953125 10.421875-24.796875 21.105469-6.28125-10.492187-9.902344-22.75-9.902344-35.84375 0-38.605469 31.410156-70.015625 70.015625-70.015625s70.015625 31.410156 70.015625 70.015625c-.003906 13.09375-3.625 25.351563-9.90625 35.84375zm0 0"/><path d="m256 270.753906c-2.628906 0-5.210938 1.058594-7.070312 2.921875-1.859376 1.867188-2.929688 4.4375-2.929688 7.078125 0 2.628906 1.070312 5.210938 2.929688 7.070313 1.859374 1.859375 4.441406 2.929687 7.070312 2.929687s5.210938-1.070312 7.070312-2.929687c1.859376-1.859375 2.929688-4.441407 2.929688-7.070313 0-2.640625-1.070312-5.210937-2.929688-7.078125-1.859374-1.863281-4.441406-2.921875-7.070312-2.921875zm0 0"/><path d="m256 20.011719c5.523438 0 10-4.476563 10-10v-.023438c0-5.519531-4.476562-9.988281-10-9.988281s-10 4.488281-10 10.011719c0 5.519531 4.476562 10 10 10zm0 0"/></svg>