<svg height="464pt" viewBox="0 0 464 463" width="464pt" xmlns="http://www.w3.org/2000/svg"><path d="m32 288.5h176v112h-176zm0 0"/><path d="m64 11.8125-52.6875 52.6875h52.6875zm0 0"/><path d="m32 112.5h256v-80h-208v48h-48zm0 0"/><path d="m240 256.5h8c30.871094 0 56-25.128906 56-56v-8h16v-192h-240v16h224v112h-288v-48h-16v352h290.328125c-31.734375-34.808594-50.328125-80.761719-50.328125-129.847656zm-224-112h16v16h-16zm208 272h-208v-144h208zm0-160h-208v-16h208zm0-32h-208v-16h208zm0-32h-208v-16h208zm0-32h-176v-16h176zm0 0"/><path d="m400.449219 208.5h-80.898438c-3.695312 33.320312-30.230469 59.855469-63.550781 63.550781v30.59375c0 69.671875 40.703125 132.527344 104 161.113281 63.296875-28.578124 104-91.441406 104-161.113281v-30.59375c-33.320312-3.695312-59.855469-30.230469-63.550781-63.550781zm-40.449219 200c-30.871094 0-56-25.128906-56-56s25.128906-56 56-56c7.230469 0 14.121094 1.425781 20.472656 3.929688l20.175782-47.082032 14.703124 6.296875-20.910156 48.792969c13.09375 10.261719 21.558594 26.175781 21.558594 44.0625 0 30.871094-25.128906 56-56 56zm0 0"/><path d="m363.558594 380.492188-32-21.335938 8.875-13.3125 16 10.664062 17.703125-41.296874c-4.410157-1.679688-9.144531-2.710938-14.136719-2.710938-22.054688 0-40 17.945312-40 40s17.945312 40 40 40 40-17.945312 40-40c0-11.230469-4.6875-21.359375-12.167969-28.632812zm0 0"/></svg>